<svg width="128" height="128" viewBox="0 0 128 128" fill="none" xmlns="http://www.w3.org/2000/svg">
<path d="M110 64C110 89.4051 89.4051 110 64 110C38.5949 110 18 89.4051 18 64C18 38.5949 38.5949 18 64 18C89.4051 18 110 38.5949 110 64Z" fill="#242424"/>
<path fill-rule="evenodd" clip-rule="evenodd" d="M64 101C84.4345 101 101 84.4345 101 64C101 43.5655 84.4345 27 64 27C43.5655 27 27 43.5655 27 64C27 84.4345 43.5655 101 64 101ZM64 110C89.4051 110 110 89.4051 110 64C110 38.5949 89.4051 18 64 18C38.5949 18 18 38.5949 18 64C18 89.4051 38.5949 110 64 110Z" fill="#F8F8F8"/>
<path fill-rule="evenodd" clip-rule="evenodd" d="M78.9626 54.3931C80.9547 56.3054 81.0193 59.4706 79.1069 61.4627L67.1069 73.9627C66.1429 74.9668 64.804 75.5237 63.4123 75.4992C62.0205 75.4748 60.7019 74.8713 59.7738 73.834L51.2738 64.334C49.4325 62.2761 49.6081 59.1151 51.666 57.2738C53.7239 55.4325 56.8849 55.6081 58.7262 57.666L63.629 63.1457L71.8931 54.5373C73.8054 52.5453 76.9706 52.4807 78.9626 54.3931Z" fill="#B7D17E"/>
<path fill-rule="evenodd" clip-rule="evenodd" d="M114 64C114 61.2386 116.239 59 119 59H123C125.761 59 128 61.2386 128 64C128 66.7614 125.761 69 123 69H119C116.239 69 114 66.7614 114 64Z" fill="#F8F8F8"/>
<path fill-rule="evenodd" clip-rule="evenodd" d="M0 64C0 61.2386 2.23858 59 5 59H9C11.7614 59 14 61.2386 14 64C14 66.7614 11.7614 69 9 69H5C2.23858 69 0 66.7614 0 64Z" fill="#F8F8F8"/>
<path fill-rule="evenodd" clip-rule="evenodd" d="M64 128C61.2386 128 59 125.761 59 123V119C59 116.239 61.2386 114 64 114C66.7614 114 69 116.239 69 119V123C69 125.761 66.7614 128 64 128Z" fill="#F8F8F8"/>
<path fill-rule="evenodd" clip-rule="evenodd" d="M16.4645 109.536C14.5119 107.583 14.5119 104.417 16.4645 102.464L19.2929 99.636C21.2455 97.6834 24.4113 97.6834 26.364 99.636C28.3166 101.589 28.3166 104.754 26.364 106.707L23.5355 109.536C21.5829 111.488 18.4171 111.488 16.4645 109.536Z" fill="#F8F8F8"/>
<path fill-rule="evenodd" clip-rule="evenodd" d="M16.4645 19.4645C18.4171 17.5118 21.5829 17.5118 23.5355 19.4645L26.364 22.2929C28.3166 24.2455 28.3166 27.4113 26.364 29.364C24.4113 31.3166 21.2455 31.3166 19.2929 29.364L16.4645 26.5355C14.5118 24.5829 14.5118 21.4171 16.4645 19.4645Z" fill="#F8F8F8"/>
<path fill-rule="evenodd" clip-rule="evenodd" d="M100.464 99.4645C102.417 97.5119 105.583 97.5119 107.536 99.4645L110.364 102.293C112.317 104.246 112.317 107.411 110.364 109.364C108.411 111.317 105.246 111.317 103.293 109.364L100.464 106.536C98.5118 104.583 98.5118 101.417 100.464 99.4645Z" fill="#F8F8F8"/>
<path fill-rule="evenodd" clip-rule="evenodd" d="M100.464 29.5355C98.5118 27.5829 98.5118 24.4171 100.464 22.4645L103.293 19.636C105.246 17.6834 108.411 17.6834 110.364 19.636C112.317 21.5887 112.317 24.7545 110.364 26.7071L107.536 29.5355C105.583 31.4882 102.417 31.4882 100.464 29.5355Z" fill="#F8F8F8"/>
<path fill-rule="evenodd" clip-rule="evenodd" d="M64 14C61.2386 14 59 11.7614 59 9V5C59 2.23858 61.2386 1.20706e-07 64 0C66.7614 -1.20705e-07 69 2.23858 69 5V9C69 11.7614 66.7614 14 64 14Z" fill="#F8F8F8"/>
</svg>
